<mxfile host="app.diagrams.net" modified="2024-03-31T18:17:34.706Z" agent="Mozilla/5.0 (Windows NT 10.0; Win64; x64) AppleWebKit/537.36 (KHTML, like Gecko) Chrome/123.0.0.0 Safari/537.36" etag="wG0qd8hxGYrlppE9620z" version="24.0.1" type="device">
  <diagram id="C5RBs43oDa-KdzZeNtuy" name="Page-1">
    <mxGraphModel dx="2796" dy="918" grid="1" gridSize="10" guides="1" tooltips="1" connect="1" arrows="1" fold="1" page="1" pageScale="1" pageWidth="827" pageHeight="1169" math="0" shadow="0">
      <root>
        <mxCell id="WIyWlLk6GJQsqaUBKTNV-0" />
        <mxCell id="WIyWlLk6GJQsqaUBKTNV-1" parent="WIyWlLk6GJQsqaUBKTNV-0" />
        <mxCell id="8B7Z0XMoEI5-TDhBGKwc-0" value="" style="ellipse;fillColor=strokeColor;html=1;" vertex="1" parent="WIyWlLk6GJQsqaUBKTNV-1">
          <mxGeometry x="-560" y="320" width="30" height="30" as="geometry" />
        </mxCell>
        <mxCell id="8B7Z0XMoEI5-TDhBGKwc-10" value="ОЧІКУВАННЯ ВИКЛИКУ ЛІФТА" style="html=1;align=center;verticalAlign=top;rounded=1;absoluteArcSize=1;arcSize=50;dashed=0;spacingTop=10;spacingRight=30;whiteSpace=wrap;" vertex="1" parent="WIyWlLk6GJQsqaUBKTNV-1">
          <mxGeometry x="-410" y="120" width="490.77" height="550" as="geometry" />
        </mxCell>
        <mxCell id="8B7Z0XMoEI5-TDhBGKwc-12" value="Посадка пасажирів" style="html=1;align=center;verticalAlign=top;rounded=1;absoluteArcSize=1;arcSize=50;dashed=0;spacingTop=10;spacingRight=30;whiteSpace=wrap;" vertex="1" parent="WIyWlLk6GJQsqaUBKTNV-1">
          <mxGeometry x="380" y="760" width="1080" height="390" as="geometry" />
        </mxCell>
        <mxCell id="8B7Z0XMoEI5-TDhBGKwc-14" style="edgeStyle=orthogonalEdgeStyle;rounded=0;orthogonalLoop=1;jettySize=auto;html=1;entryX=0.004;entryY=0.364;entryDx=0;entryDy=0;entryPerimeter=0;" edge="1" parent="WIyWlLk6GJQsqaUBKTNV-1" source="8B7Z0XMoEI5-TDhBGKwc-0" target="8B7Z0XMoEI5-TDhBGKwc-10">
          <mxGeometry relative="1" as="geometry" />
        </mxCell>
        <mxCell id="8B7Z0XMoEI5-TDhBGKwc-25" value="" style="group" vertex="1" connectable="0" parent="WIyWlLk6GJQsqaUBKTNV-1">
          <mxGeometry x="-380" y="200" width="140" height="70" as="geometry" />
        </mxCell>
        <mxCell id="8B7Z0XMoEI5-TDhBGKwc-26" value="Отримано виклик&amp;nbsp;" style="html=1;align=center;verticalAlign=top;rounded=1;absoluteArcSize=1;arcSize=21;dashed=0;whiteSpace=wrap;" vertex="1" parent="8B7Z0XMoEI5-TDhBGKwc-25">
          <mxGeometry width="140" height="60" as="geometry" />
        </mxCell>
        <mxCell id="8B7Z0XMoEI5-TDhBGKwc-27" value="" style="endArrow=none;html=1;rounded=0;entryX=1;entryY=0.5;entryDx=0;entryDy=0;exitX=0;exitY=0.5;exitDx=0;exitDy=0;" edge="1" parent="8B7Z0XMoEI5-TDhBGKwc-25" source="8B7Z0XMoEI5-TDhBGKwc-26" target="8B7Z0XMoEI5-TDhBGKwc-26">
          <mxGeometry width="50" height="50" relative="1" as="geometry">
            <mxPoint x="-104" y="70" as="sourcePoint" />
            <mxPoint x="-54" y="20" as="targetPoint" />
          </mxGeometry>
        </mxCell>
        <mxCell id="8B7Z0XMoEI5-TDhBGKwc-32" value="Очікування" style="text;html=1;align=center;verticalAlign=middle;resizable=0;points=[];autosize=1;strokeColor=none;fillColor=none;" vertex="1" parent="WIyWlLk6GJQsqaUBKTNV-1">
          <mxGeometry x="-510" y="290" width="90" height="30" as="geometry" />
        </mxCell>
        <mxCell id="8B7Z0XMoEI5-TDhBGKwc-36" value="" style="group" vertex="1" connectable="0" parent="WIyWlLk6GJQsqaUBKTNV-1">
          <mxGeometry x="-380" y="320" width="140" height="70" as="geometry" />
        </mxCell>
        <mxCell id="8B7Z0XMoEI5-TDhBGKwc-37" value="Пошук вільного ліфта" style="html=1;align=center;verticalAlign=top;rounded=1;absoluteArcSize=1;arcSize=21;dashed=0;whiteSpace=wrap;" vertex="1" parent="8B7Z0XMoEI5-TDhBGKwc-36">
          <mxGeometry width="140" height="60" as="geometry" />
        </mxCell>
        <mxCell id="8B7Z0XMoEI5-TDhBGKwc-38" value="" style="endArrow=none;html=1;rounded=0;entryX=1;entryY=0.5;entryDx=0;entryDy=0;exitX=0;exitY=0.5;exitDx=0;exitDy=0;" edge="1" parent="8B7Z0XMoEI5-TDhBGKwc-36" source="8B7Z0XMoEI5-TDhBGKwc-37" target="8B7Z0XMoEI5-TDhBGKwc-37">
          <mxGeometry width="50" height="50" relative="1" as="geometry">
            <mxPoint x="-104" y="70" as="sourcePoint" />
            <mxPoint x="-54" y="20" as="targetPoint" />
          </mxGeometry>
        </mxCell>
        <mxCell id="8B7Z0XMoEI5-TDhBGKwc-39" value="&lt;div style=&quot;text-align: center;&quot;&gt;&lt;span style=&quot;background-color: initial;&quot;&gt;Пошук серед 10 ліфтів&lt;/span&gt;&lt;/div&gt;" style="text;whiteSpace=wrap;html=1;" vertex="1" parent="8B7Z0XMoEI5-TDhBGKwc-36">
          <mxGeometry y="30" width="140" height="40" as="geometry" />
        </mxCell>
        <mxCell id="8B7Z0XMoEI5-TDhBGKwc-40" value="" style="group" vertex="1" connectable="0" parent="WIyWlLk6GJQsqaUBKTNV-1">
          <mxGeometry x="-370" y="450" width="150" height="70" as="geometry" />
        </mxCell>
        <mxCell id="8B7Z0XMoEI5-TDhBGKwc-41" value="Очікування" style="html=1;align=center;verticalAlign=top;rounded=1;absoluteArcSize=1;arcSize=21;dashed=0;whiteSpace=wrap;" vertex="1" parent="8B7Z0XMoEI5-TDhBGKwc-40">
          <mxGeometry width="140" height="60" as="geometry" />
        </mxCell>
        <mxCell id="8B7Z0XMoEI5-TDhBGKwc-42" value="" style="endArrow=none;html=1;rounded=0;entryX=1;entryY=0.5;entryDx=0;entryDy=0;exitX=0;exitY=0.5;exitDx=0;exitDy=0;" edge="1" parent="8B7Z0XMoEI5-TDhBGKwc-40" source="8B7Z0XMoEI5-TDhBGKwc-41" target="8B7Z0XMoEI5-TDhBGKwc-41">
          <mxGeometry width="50" height="50" relative="1" as="geometry">
            <mxPoint x="-104" y="70" as="sourcePoint" />
            <mxPoint x="-54" y="20" as="targetPoint" />
          </mxGeometry>
        </mxCell>
        <mxCell id="8B7Z0XMoEI5-TDhBGKwc-43" value="&lt;span style=&quot;color: rgb(0, 0, 0); font-family: Helvetica; font-size: 12px; font-style: normal; font-variant-ligatures: normal; font-variant-caps: normal; font-weight: 400; letter-spacing: normal; orphans: 2; text-align: center; text-indent: 0px; text-transform: none; widows: 2; word-spacing: 0px; -webkit-text-stroke-width: 0px; white-space: normal; background-color: rgb(251, 251, 251); text-decoration-thickness: initial; text-decoration-style: initial; text-decoration-color: initial; display: inline !important; float: none;&quot;&gt;Очікування вільного ліфта&lt;/span&gt;" style="text;whiteSpace=wrap;html=1;" vertex="1" parent="8B7Z0XMoEI5-TDhBGKwc-40">
          <mxGeometry x="-5" y="30" width="150" height="40" as="geometry" />
        </mxCell>
        <mxCell id="8B7Z0XMoEI5-TDhBGKwc-44" style="edgeStyle=orthogonalEdgeStyle;rounded=0;orthogonalLoop=1;jettySize=auto;html=1;" edge="1" parent="WIyWlLk6GJQsqaUBKTNV-1" source="8B7Z0XMoEI5-TDhBGKwc-39" target="8B7Z0XMoEI5-TDhBGKwc-41">
          <mxGeometry relative="1" as="geometry">
            <Array as="points">
              <mxPoint x="-220" y="370" />
              <mxPoint x="-220" y="430" />
              <mxPoint x="-260" y="430" />
            </Array>
          </mxGeometry>
        </mxCell>
        <mxCell id="8B7Z0XMoEI5-TDhBGKwc-45" style="edgeStyle=orthogonalEdgeStyle;rounded=0;orthogonalLoop=1;jettySize=auto;html=1;entryX=0.087;entryY=0.976;entryDx=0;entryDy=0;entryPerimeter=0;" edge="1" parent="WIyWlLk6GJQsqaUBKTNV-1" source="8B7Z0XMoEI5-TDhBGKwc-41" target="8B7Z0XMoEI5-TDhBGKwc-39">
          <mxGeometry relative="1" as="geometry" />
        </mxCell>
        <mxCell id="8B7Z0XMoEI5-TDhBGKwc-46" value="Ліфт&amp;nbsp;&lt;div&gt;не знайдено&lt;/div&gt;" style="text;html=1;align=center;verticalAlign=middle;resizable=0;points=[];autosize=1;strokeColor=none;fillColor=none;" vertex="1" parent="WIyWlLk6GJQsqaUBKTNV-1">
          <mxGeometry x="-230" y="390" width="90" height="40" as="geometry" />
        </mxCell>
        <mxCell id="8B7Z0XMoEI5-TDhBGKwc-47" value="Ліфт&lt;div&gt;&amp;nbsp;знайдено&lt;/div&gt;" style="text;html=1;align=center;verticalAlign=middle;resizable=0;points=[];autosize=1;strokeColor=none;fillColor=none;" vertex="1" parent="WIyWlLk6GJQsqaUBKTNV-1">
          <mxGeometry x="-380" y="385" width="80" height="40" as="geometry" />
        </mxCell>
        <mxCell id="8B7Z0XMoEI5-TDhBGKwc-48" style="edgeStyle=orthogonalEdgeStyle;rounded=0;orthogonalLoop=1;jettySize=auto;html=1;entryX=0.5;entryY=0;entryDx=0;entryDy=0;" edge="1" parent="WIyWlLk6GJQsqaUBKTNV-1" source="8B7Z0XMoEI5-TDhBGKwc-26" target="8B7Z0XMoEI5-TDhBGKwc-37">
          <mxGeometry relative="1" as="geometry" />
        </mxCell>
        <mxCell id="8B7Z0XMoEI5-TDhBGKwc-49" value="Пошук ліфта" style="text;html=1;align=center;verticalAlign=middle;resizable=0;points=[];autosize=1;strokeColor=none;fillColor=none;" vertex="1" parent="WIyWlLk6GJQsqaUBKTNV-1">
          <mxGeometry x="-310" y="275" width="90" height="30" as="geometry" />
        </mxCell>
        <mxCell id="8B7Z0XMoEI5-TDhBGKwc-52" value="" style="group" vertex="1" connectable="0" parent="WIyWlLk6GJQsqaUBKTNV-1">
          <mxGeometry x="-100" y="390" width="140" height="70" as="geometry" />
        </mxCell>
        <mxCell id="8B7Z0XMoEI5-TDhBGKwc-63" style="edgeStyle=orthogonalEdgeStyle;rounded=0;orthogonalLoop=1;jettySize=auto;html=1;" edge="1" parent="8B7Z0XMoEI5-TDhBGKwc-52" source="8B7Z0XMoEI5-TDhBGKwc-53">
          <mxGeometry relative="1" as="geometry">
            <mxPoint x="70" y="120" as="targetPoint" />
          </mxGeometry>
        </mxCell>
        <mxCell id="8B7Z0XMoEI5-TDhBGKwc-53" value="Подати сигнал ліфту" style="html=1;align=center;verticalAlign=top;rounded=1;absoluteArcSize=1;arcSize=21;dashed=0;whiteSpace=wrap;" vertex="1" parent="8B7Z0XMoEI5-TDhBGKwc-52">
          <mxGeometry width="140" height="60" as="geometry" />
        </mxCell>
        <mxCell id="8B7Z0XMoEI5-TDhBGKwc-54" value="" style="endArrow=none;html=1;rounded=0;entryX=1;entryY=0.5;entryDx=0;entryDy=0;exitX=0;exitY=0.5;exitDx=0;exitDy=0;" edge="1" parent="8B7Z0XMoEI5-TDhBGKwc-52" source="8B7Z0XMoEI5-TDhBGKwc-53" target="8B7Z0XMoEI5-TDhBGKwc-53">
          <mxGeometry width="50" height="50" relative="1" as="geometry">
            <mxPoint x="-104" y="70" as="sourcePoint" />
            <mxPoint x="-54" y="20" as="targetPoint" />
          </mxGeometry>
        </mxCell>
        <mxCell id="8B7Z0XMoEI5-TDhBGKwc-57" style="edgeStyle=orthogonalEdgeStyle;rounded=0;orthogonalLoop=1;jettySize=auto;html=1;exitX=1;exitY=0.25;exitDx=0;exitDy=0;entryX=0.25;entryY=0;entryDx=0;entryDy=0;" edge="1" parent="WIyWlLk6GJQsqaUBKTNV-1" source="8B7Z0XMoEI5-TDhBGKwc-39" target="8B7Z0XMoEI5-TDhBGKwc-53">
          <mxGeometry relative="1" as="geometry" />
        </mxCell>
        <mxCell id="8B7Z0XMoEI5-TDhBGKwc-58" value="" style="group" vertex="1" connectable="0" parent="WIyWlLk6GJQsqaUBKTNV-1">
          <mxGeometry x="-100" y="515" width="140" height="75" as="geometry" />
        </mxCell>
        <mxCell id="8B7Z0XMoEI5-TDhBGKwc-59" value="Відправити ліфт на поверх" style="html=1;align=center;verticalAlign=top;rounded=1;absoluteArcSize=1;arcSize=21;dashed=0;whiteSpace=wrap;" vertex="1" parent="8B7Z0XMoEI5-TDhBGKwc-58">
          <mxGeometry width="140" height="64.28571428571428" as="geometry" />
        </mxCell>
        <mxCell id="8B7Z0XMoEI5-TDhBGKwc-60" value="" style="endArrow=none;html=1;rounded=0;entryX=1;entryY=0.5;entryDx=0;entryDy=0;exitX=0;exitY=0.5;exitDx=0;exitDy=0;" edge="1" parent="8B7Z0XMoEI5-TDhBGKwc-58" source="8B7Z0XMoEI5-TDhBGKwc-59" target="8B7Z0XMoEI5-TDhBGKwc-59">
          <mxGeometry width="50" height="50" relative="1" as="geometry">
            <mxPoint x="-104" y="75" as="sourcePoint" />
            <mxPoint x="-54" y="21.428571428571427" as="targetPoint" />
          </mxGeometry>
        </mxCell>
        <mxCell id="8B7Z0XMoEI5-TDhBGKwc-64" value="Подання сигналу" style="text;html=1;align=center;verticalAlign=middle;resizable=0;points=[];autosize=1;strokeColor=none;fillColor=none;" vertex="1" parent="WIyWlLk6GJQsqaUBKTNV-1">
          <mxGeometry x="-195" y="330" width="120" height="30" as="geometry" />
        </mxCell>
        <mxCell id="8B7Z0XMoEI5-TDhBGKwc-65" value="Відправити&amp;nbsp;&lt;div&gt;ліфт&lt;/div&gt;" style="text;html=1;align=center;verticalAlign=middle;resizable=0;points=[];autosize=1;strokeColor=none;fillColor=none;" vertex="1" parent="WIyWlLk6GJQsqaUBKTNV-1">
          <mxGeometry x="-30" y="465" width="90" height="40" as="geometry" />
        </mxCell>
        <mxCell id="8B7Z0XMoEI5-TDhBGKwc-73" value="Ліфт їде" style="text;html=1;align=center;verticalAlign=middle;resizable=0;points=[];autosize=1;strokeColor=none;fillColor=none;" vertex="1" parent="WIyWlLk6GJQsqaUBKTNV-1">
          <mxGeometry x="90" y="530" width="70" height="30" as="geometry" />
        </mxCell>
        <mxCell id="8B7Z0XMoEI5-TDhBGKwc-90" value="" style="group" vertex="1" connectable="0" parent="WIyWlLk6GJQsqaUBKTNV-1">
          <mxGeometry x="318" y="110" width="508.62" height="570" as="geometry" />
        </mxCell>
        <mxCell id="8B7Z0XMoEI5-TDhBGKwc-11" value="РУХ ЛІФТУ" style="html=1;align=center;verticalAlign=top;rounded=1;absoluteArcSize=1;arcSize=50;dashed=0;spacingTop=10;spacingRight=30;whiteSpace=wrap;" vertex="1" parent="8B7Z0XMoEI5-TDhBGKwc-90">
          <mxGeometry width="508.62" height="570" as="geometry" />
        </mxCell>
        <mxCell id="8B7Z0XMoEI5-TDhBGKwc-24" value="" style="group" vertex="1" connectable="0" parent="8B7Z0XMoEI5-TDhBGKwc-90">
          <mxGeometry x="174" y="460" width="140" height="70" as="geometry" />
        </mxCell>
        <mxCell id="8B7Z0XMoEI5-TDhBGKwc-18" value="Відкрити двері" style="html=1;align=center;verticalAlign=top;rounded=1;absoluteArcSize=1;arcSize=21;dashed=0;whiteSpace=wrap;" vertex="1" parent="8B7Z0XMoEI5-TDhBGKwc-24">
          <mxGeometry width="140" height="60" as="geometry" />
        </mxCell>
        <mxCell id="8B7Z0XMoEI5-TDhBGKwc-19" value="" style="endArrow=none;html=1;rounded=0;entryX=1;entryY=0.5;entryDx=0;entryDy=0;exitX=0;exitY=0.5;exitDx=0;exitDy=0;" edge="1" parent="8B7Z0XMoEI5-TDhBGKwc-24" source="8B7Z0XMoEI5-TDhBGKwc-18" target="8B7Z0XMoEI5-TDhBGKwc-18">
          <mxGeometry width="50" height="50" relative="1" as="geometry">
            <mxPoint x="-104" y="70" as="sourcePoint" />
            <mxPoint x="-54" y="20" as="targetPoint" />
          </mxGeometry>
        </mxCell>
        <mxCell id="8B7Z0XMoEI5-TDhBGKwc-20" value="&lt;span style=&quot;color: rgb(0, 0, 0); font-family: Helvetica; font-size: 12px; font-style: normal; font-variant-ligatures: normal; font-variant-caps: normal; font-weight: 400; letter-spacing: normal; orphans: 2; text-align: center; text-indent: 0px; text-transform: none; widows: 2; word-spacing: 0px; -webkit-text-stroke-width: 0px; white-space: normal; background-color: rgb(251, 251, 251); text-decoration-thickness: initial; text-decoration-style: initial; text-decoration-color: initial; display: inline !important; float: none;&quot;&gt;Двері відкриті 15 секунд&lt;/span&gt;" style="text;whiteSpace=wrap;html=1;" vertex="1" parent="8B7Z0XMoEI5-TDhBGKwc-24">
          <mxGeometry y="30" width="140" height="40" as="geometry" />
        </mxCell>
        <mxCell id="8B7Z0XMoEI5-TDhBGKwc-68" value="" style="ellipse;fillColor=strokeColor;html=1;" vertex="1" parent="8B7Z0XMoEI5-TDhBGKwc-90">
          <mxGeometry x="90" y="70" width="30" height="30" as="geometry" />
        </mxCell>
        <mxCell id="8B7Z0XMoEI5-TDhBGKwc-69" value="" style="group" vertex="1" connectable="0" parent="8B7Z0XMoEI5-TDhBGKwc-90">
          <mxGeometry x="35" y="200" width="140" height="70" as="geometry" />
        </mxCell>
        <mxCell id="8B7Z0XMoEI5-TDhBGKwc-70" value="Прибуття ліфту на поверх" style="html=1;align=center;verticalAlign=top;rounded=1;absoluteArcSize=1;arcSize=21;dashed=0;whiteSpace=wrap;" vertex="1" parent="8B7Z0XMoEI5-TDhBGKwc-69">
          <mxGeometry width="140" height="70" as="geometry" />
        </mxCell>
        <mxCell id="8B7Z0XMoEI5-TDhBGKwc-71" value="" style="endArrow=none;html=1;rounded=0;entryX=1;entryY=0.5;entryDx=0;entryDy=0;exitX=0;exitY=0.5;exitDx=0;exitDy=0;" edge="1" parent="8B7Z0XMoEI5-TDhBGKwc-69" source="8B7Z0XMoEI5-TDhBGKwc-70" target="8B7Z0XMoEI5-TDhBGKwc-70">
          <mxGeometry width="50" height="50" relative="1" as="geometry">
            <mxPoint x="-104" y="70" as="sourcePoint" />
            <mxPoint x="-54" y="20" as="targetPoint" />
          </mxGeometry>
        </mxCell>
        <mxCell id="8B7Z0XMoEI5-TDhBGKwc-76" value="" style="edgeStyle=orthogonalEdgeStyle;rounded=0;orthogonalLoop=1;jettySize=auto;html=1;" edge="1" parent="8B7Z0XMoEI5-TDhBGKwc-90" source="8B7Z0XMoEI5-TDhBGKwc-68" target="8B7Z0XMoEI5-TDhBGKwc-70">
          <mxGeometry relative="1" as="geometry" />
        </mxCell>
        <mxCell id="8B7Z0XMoEI5-TDhBGKwc-77" value="" style="group" vertex="1" connectable="0" parent="8B7Z0XMoEI5-TDhBGKwc-90">
          <mxGeometry x="40" y="330" width="140" height="70" as="geometry" />
        </mxCell>
        <mxCell id="8B7Z0XMoEI5-TDhBGKwc-78" value="Подання сигналу на табло" style="html=1;align=center;verticalAlign=top;rounded=1;absoluteArcSize=1;arcSize=21;dashed=0;whiteSpace=wrap;" vertex="1" parent="8B7Z0XMoEI5-TDhBGKwc-77">
          <mxGeometry width="140" height="70" as="geometry" />
        </mxCell>
        <mxCell id="8B7Z0XMoEI5-TDhBGKwc-79" value="" style="endArrow=none;html=1;rounded=0;entryX=1;entryY=0.5;entryDx=0;entryDy=0;exitX=0;exitY=0.5;exitDx=0;exitDy=0;" edge="1" parent="8B7Z0XMoEI5-TDhBGKwc-77" source="8B7Z0XMoEI5-TDhBGKwc-78" target="8B7Z0XMoEI5-TDhBGKwc-78">
          <mxGeometry width="50" height="50" relative="1" as="geometry">
            <mxPoint x="-104" y="70" as="sourcePoint" />
            <mxPoint x="-54" y="20" as="targetPoint" />
          </mxGeometry>
        </mxCell>
        <mxCell id="8B7Z0XMoEI5-TDhBGKwc-80" value="&lt;div style=&quot;text-align: center;&quot;&gt;&lt;span style=&quot;background-color: initial;&quot;&gt;Номер поверх світиться&lt;/span&gt;&lt;/div&gt;" style="text;whiteSpace=wrap;html=1;" vertex="1" parent="8B7Z0XMoEI5-TDhBGKwc-77">
          <mxGeometry y="40" width="140" height="40" as="geometry" />
        </mxCell>
        <mxCell id="8B7Z0XMoEI5-TDhBGKwc-82" style="edgeStyle=orthogonalEdgeStyle;rounded=0;orthogonalLoop=1;jettySize=auto;html=1;exitX=0.5;exitY=1;exitDx=0;exitDy=0;entryX=0.583;entryY=0.037;entryDx=0;entryDy=0;entryPerimeter=0;" edge="1" parent="8B7Z0XMoEI5-TDhBGKwc-90" source="8B7Z0XMoEI5-TDhBGKwc-70" target="8B7Z0XMoEI5-TDhBGKwc-78">
          <mxGeometry relative="1" as="geometry" />
        </mxCell>
        <mxCell id="8B7Z0XMoEI5-TDhBGKwc-89" style="edgeStyle=orthogonalEdgeStyle;rounded=0;orthogonalLoop=1;jettySize=auto;html=1;exitX=1;exitY=0.25;exitDx=0;exitDy=0;entryX=0.357;entryY=-0.025;entryDx=0;entryDy=0;entryPerimeter=0;" edge="1" parent="8B7Z0XMoEI5-TDhBGKwc-90" source="8B7Z0XMoEI5-TDhBGKwc-80" target="8B7Z0XMoEI5-TDhBGKwc-18">
          <mxGeometry relative="1" as="geometry" />
        </mxCell>
        <mxCell id="8B7Z0XMoEI5-TDhBGKwc-210" value="" style="group" vertex="1" connectable="0" parent="8B7Z0XMoEI5-TDhBGKwc-90">
          <mxGeometry x="332" y="340" width="150" height="70" as="geometry" />
        </mxCell>
        <mxCell id="8B7Z0XMoEI5-TDhBGKwc-211" value="Ліфт починає рух" style="html=1;align=center;verticalAlign=top;rounded=1;absoluteArcSize=1;arcSize=21;dashed=0;whiteSpace=wrap;" vertex="1" parent="8B7Z0XMoEI5-TDhBGKwc-210">
          <mxGeometry width="140" height="70" as="geometry" />
        </mxCell>
        <mxCell id="8B7Z0XMoEI5-TDhBGKwc-212" value="" style="endArrow=none;html=1;rounded=0;entryX=1;entryY=0.5;entryDx=0;entryDy=0;exitX=0;exitY=0.5;exitDx=0;exitDy=0;" edge="1" parent="8B7Z0XMoEI5-TDhBGKwc-210" source="8B7Z0XMoEI5-TDhBGKwc-211" target="8B7Z0XMoEI5-TDhBGKwc-211">
          <mxGeometry width="50" height="50" relative="1" as="geometry">
            <mxPoint x="-104" y="70" as="sourcePoint" />
            <mxPoint x="-54" y="20" as="targetPoint" />
          </mxGeometry>
        </mxCell>
        <mxCell id="8B7Z0XMoEI5-TDhBGKwc-213" value="&lt;div style=&quot;&quot;&gt;&lt;span style=&quot;background-color: initial;&quot;&gt;Двері зачиняються і ліфт починає рух&lt;/span&gt;&lt;/div&gt;" style="text;whiteSpace=wrap;html=1;align=center;" vertex="1" parent="8B7Z0XMoEI5-TDhBGKwc-210">
          <mxGeometry x="5" y="30" width="140" height="30" as="geometry" />
        </mxCell>
        <mxCell id="8B7Z0XMoEI5-TDhBGKwc-91" style="edgeStyle=orthogonalEdgeStyle;rounded=0;orthogonalLoop=1;jettySize=auto;html=1;exitX=0.25;exitY=1;exitDx=0;exitDy=0;entryX=0.279;entryY=0.005;entryDx=0;entryDy=0;entryPerimeter=0;" edge="1" parent="WIyWlLk6GJQsqaUBKTNV-1" source="8B7Z0XMoEI5-TDhBGKwc-20" target="8B7Z0XMoEI5-TDhBGKwc-12">
          <mxGeometry relative="1" as="geometry" />
        </mxCell>
        <mxCell id="8B7Z0XMoEI5-TDhBGKwc-114" style="edgeStyle=orthogonalEdgeStyle;rounded=0;orthogonalLoop=1;jettySize=auto;html=1;exitX=0.5;exitY=1;exitDx=0;exitDy=0;entryX=0.25;entryY=0;entryDx=0;entryDy=0;" edge="1" parent="WIyWlLk6GJQsqaUBKTNV-1" source="8B7Z0XMoEI5-TDhBGKwc-92" target="8B7Z0XMoEI5-TDhBGKwc-111">
          <mxGeometry relative="1" as="geometry" />
        </mxCell>
        <mxCell id="8B7Z0XMoEI5-TDhBGKwc-92" value="" style="ellipse;fillColor=strokeColor;html=1;" vertex="1" parent="WIyWlLk6GJQsqaUBKTNV-1">
          <mxGeometry x="420" y="810" width="30" height="30" as="geometry" />
        </mxCell>
        <mxCell id="8B7Z0XMoEI5-TDhBGKwc-110" value="" style="group" vertex="1" connectable="0" parent="WIyWlLk6GJQsqaUBKTNV-1">
          <mxGeometry x="400" y="880" width="150" height="70" as="geometry" />
        </mxCell>
        <mxCell id="8B7Z0XMoEI5-TDhBGKwc-111" value="Пасажири заходять" style="html=1;align=center;verticalAlign=top;rounded=1;absoluteArcSize=1;arcSize=21;dashed=0;whiteSpace=wrap;" vertex="1" parent="8B7Z0XMoEI5-TDhBGKwc-110">
          <mxGeometry width="140" height="70" as="geometry" />
        </mxCell>
        <mxCell id="8B7Z0XMoEI5-TDhBGKwc-112" value="" style="endArrow=none;html=1;rounded=0;entryX=1;entryY=0.5;entryDx=0;entryDy=0;exitX=0;exitY=0.5;exitDx=0;exitDy=0;" edge="1" parent="8B7Z0XMoEI5-TDhBGKwc-110" source="8B7Z0XMoEI5-TDhBGKwc-111" target="8B7Z0XMoEI5-TDhBGKwc-111">
          <mxGeometry width="50" height="50" relative="1" as="geometry">
            <mxPoint x="-104" y="70" as="sourcePoint" />
            <mxPoint x="-54" y="20" as="targetPoint" />
          </mxGeometry>
        </mxCell>
        <mxCell id="8B7Z0XMoEI5-TDhBGKwc-113" value="&lt;div style=&quot;&quot;&gt;&lt;span style=&quot;background-color: initial;&quot;&gt;Посадка пасажирів&lt;/span&gt;&lt;/div&gt;" style="text;whiteSpace=wrap;html=1;align=center;" vertex="1" parent="8B7Z0XMoEI5-TDhBGKwc-110">
          <mxGeometry y="40" width="140" height="30" as="geometry" />
        </mxCell>
        <mxCell id="8B7Z0XMoEI5-TDhBGKwc-116" value="" style="group" vertex="1" connectable="0" parent="WIyWlLk6GJQsqaUBKTNV-1">
          <mxGeometry x="550" y="960" width="150" height="70" as="geometry" />
        </mxCell>
        <mxCell id="8B7Z0XMoEI5-TDhBGKwc-117" value="Натиснення кнопки" style="html=1;align=center;verticalAlign=top;rounded=1;absoluteArcSize=1;arcSize=21;dashed=0;whiteSpace=wrap;" vertex="1" parent="8B7Z0XMoEI5-TDhBGKwc-116">
          <mxGeometry width="140" height="70" as="geometry" />
        </mxCell>
        <mxCell id="8B7Z0XMoEI5-TDhBGKwc-118" value="" style="endArrow=none;html=1;rounded=0;entryX=1;entryY=0.5;entryDx=0;entryDy=0;exitX=0;exitY=0.5;exitDx=0;exitDy=0;" edge="1" parent="8B7Z0XMoEI5-TDhBGKwc-116" source="8B7Z0XMoEI5-TDhBGKwc-117" target="8B7Z0XMoEI5-TDhBGKwc-117">
          <mxGeometry width="50" height="50" relative="1" as="geometry">
            <mxPoint x="-104" y="70" as="sourcePoint" />
            <mxPoint x="-54" y="20" as="targetPoint" />
          </mxGeometry>
        </mxCell>
        <mxCell id="8B7Z0XMoEI5-TDhBGKwc-119" value="&lt;div style=&quot;&quot;&gt;&lt;span style=&quot;background-color: initial;&quot;&gt;Вибір поверху для руху&lt;/span&gt;&lt;/div&gt;" style="text;whiteSpace=wrap;html=1;align=center;" vertex="1" parent="8B7Z0XMoEI5-TDhBGKwc-116">
          <mxGeometry y="40" width="140" height="30" as="geometry" />
        </mxCell>
        <mxCell id="8B7Z0XMoEI5-TDhBGKwc-120" style="edgeStyle=orthogonalEdgeStyle;rounded=0;orthogonalLoop=1;jettySize=auto;html=1;entryX=0.403;entryY=0.029;entryDx=0;entryDy=0;entryPerimeter=0;exitX=1;exitY=0.5;exitDx=0;exitDy=0;" edge="1" parent="WIyWlLk6GJQsqaUBKTNV-1" source="8B7Z0XMoEI5-TDhBGKwc-113" target="8B7Z0XMoEI5-TDhBGKwc-117">
          <mxGeometry relative="1" as="geometry">
            <mxPoint x="610" y="850" as="sourcePoint" />
          </mxGeometry>
        </mxCell>
        <mxCell id="8B7Z0XMoEI5-TDhBGKwc-121" value="Пасажири&amp;nbsp;&lt;div&gt;натискають кнопку&lt;/div&gt;" style="text;html=1;align=center;verticalAlign=middle;resizable=0;points=[];autosize=1;strokeColor=none;fillColor=none;" vertex="1" parent="WIyWlLk6GJQsqaUBKTNV-1">
          <mxGeometry x="670" y="910" width="130" height="40" as="geometry" />
        </mxCell>
        <mxCell id="8B7Z0XMoEI5-TDhBGKwc-122" value="Посадка" style="text;html=1;align=center;verticalAlign=middle;resizable=0;points=[];autosize=1;strokeColor=none;fillColor=none;" vertex="1" parent="WIyWlLk6GJQsqaUBKTNV-1">
          <mxGeometry x="430" y="840" width="70" height="30" as="geometry" />
        </mxCell>
        <mxCell id="8B7Z0XMoEI5-TDhBGKwc-126" value="" style="group" vertex="1" connectable="0" parent="WIyWlLk6GJQsqaUBKTNV-1">
          <mxGeometry x="120" y="670" width="150" height="80" as="geometry" />
        </mxCell>
        <mxCell id="8B7Z0XMoEI5-TDhBGKwc-127" value="Стрілка напряму руху" style="html=1;align=center;verticalAlign=top;rounded=1;absoluteArcSize=1;arcSize=21;dashed=0;whiteSpace=wrap;" vertex="1" parent="8B7Z0XMoEI5-TDhBGKwc-126">
          <mxGeometry width="140" height="80" as="geometry" />
        </mxCell>
        <mxCell id="8B7Z0XMoEI5-TDhBGKwc-128" value="" style="endArrow=none;html=1;rounded=0;entryX=1;entryY=0.5;entryDx=0;entryDy=0;exitX=0;exitY=0.5;exitDx=0;exitDy=0;" edge="1" parent="8B7Z0XMoEI5-TDhBGKwc-126" source="8B7Z0XMoEI5-TDhBGKwc-127" target="8B7Z0XMoEI5-TDhBGKwc-127">
          <mxGeometry width="50" height="50" relative="1" as="geometry">
            <mxPoint x="-104" y="80" as="sourcePoint" />
            <mxPoint x="-54" y="22.857142857142854" as="targetPoint" />
          </mxGeometry>
        </mxCell>
        <mxCell id="8B7Z0XMoEI5-TDhBGKwc-129" value="&lt;div style=&quot;&quot;&gt;&lt;span style=&quot;background-color: initial;&quot;&gt;Вказує напрям ліфту&lt;br&gt;що рухається&lt;/span&gt;&lt;/div&gt;" style="text;whiteSpace=wrap;html=1;align=center;" vertex="1" parent="8B7Z0XMoEI5-TDhBGKwc-126">
          <mxGeometry y="45.71428571428571" width="140" height="34.285714285714285" as="geometry" />
        </mxCell>
        <mxCell id="8B7Z0XMoEI5-TDhBGKwc-131" style="edgeStyle=orthogonalEdgeStyle;rounded=0;orthogonalLoop=1;jettySize=auto;html=1;exitX=1;exitY=0.75;exitDx=0;exitDy=0;entryX=0.138;entryY=0.018;entryDx=0;entryDy=0;entryPerimeter=0;" edge="1" parent="WIyWlLk6GJQsqaUBKTNV-1" source="8B7Z0XMoEI5-TDhBGKwc-59" target="8B7Z0XMoEI5-TDhBGKwc-127">
          <mxGeometry relative="1" as="geometry" />
        </mxCell>
        <mxCell id="8B7Z0XMoEI5-TDhBGKwc-132" style="edgeStyle=orthogonalEdgeStyle;rounded=0;orthogonalLoop=1;jettySize=auto;html=1;exitX=1;exitY=0.5;exitDx=0;exitDy=0;entryX=0;entryY=0.5;entryDx=0;entryDy=0;" edge="1" parent="WIyWlLk6GJQsqaUBKTNV-1" source="8B7Z0XMoEI5-TDhBGKwc-129" target="8B7Z0XMoEI5-TDhBGKwc-11">
          <mxGeometry relative="1" as="geometry" />
        </mxCell>
        <mxCell id="8B7Z0XMoEI5-TDhBGKwc-133" value="" style="group" vertex="1" connectable="0" parent="WIyWlLk6GJQsqaUBKTNV-1">
          <mxGeometry x="810" y="930" width="150" height="70" as="geometry" />
        </mxCell>
        <mxCell id="8B7Z0XMoEI5-TDhBGKwc-134" value="Натиснені кнопки загораються" style="html=1;align=center;verticalAlign=top;rounded=1;absoluteArcSize=1;arcSize=21;dashed=0;whiteSpace=wrap;" vertex="1" parent="8B7Z0XMoEI5-TDhBGKwc-133">
          <mxGeometry width="140" height="70" as="geometry" />
        </mxCell>
        <mxCell id="8B7Z0XMoEI5-TDhBGKwc-135" value="" style="endArrow=none;html=1;rounded=0;entryX=1;entryY=0.5;entryDx=0;entryDy=0;exitX=0;exitY=0.5;exitDx=0;exitDy=0;" edge="1" parent="8B7Z0XMoEI5-TDhBGKwc-133" source="8B7Z0XMoEI5-TDhBGKwc-134" target="8B7Z0XMoEI5-TDhBGKwc-134">
          <mxGeometry width="50" height="50" relative="1" as="geometry">
            <mxPoint x="-104" y="70" as="sourcePoint" />
            <mxPoint x="-54" y="20" as="targetPoint" />
          </mxGeometry>
        </mxCell>
        <mxCell id="8B7Z0XMoEI5-TDhBGKwc-144" style="edgeStyle=orthogonalEdgeStyle;rounded=0;orthogonalLoop=1;jettySize=auto;html=1;exitX=0.75;exitY=1;exitDx=0;exitDy=0;" edge="1" parent="8B7Z0XMoEI5-TDhBGKwc-133" source="8B7Z0XMoEI5-TDhBGKwc-136">
          <mxGeometry relative="1" as="geometry">
            <mxPoint x="104.58823529411757" y="110" as="targetPoint" />
          </mxGeometry>
        </mxCell>
        <mxCell id="8B7Z0XMoEI5-TDhBGKwc-136" value="&lt;div style=&quot;&quot;&gt;Вибір порядку висадки&amp;nbsp;&lt;/div&gt;" style="text;whiteSpace=wrap;html=1;align=center;" vertex="1" parent="8B7Z0XMoEI5-TDhBGKwc-133">
          <mxGeometry y="40" width="140" height="30" as="geometry" />
        </mxCell>
        <mxCell id="8B7Z0XMoEI5-TDhBGKwc-137" style="edgeStyle=orthogonalEdgeStyle;rounded=0;orthogonalLoop=1;jettySize=auto;html=1;exitX=1;exitY=0.25;exitDx=0;exitDy=0;entryX=0;entryY=0.25;entryDx=0;entryDy=0;" edge="1" parent="WIyWlLk6GJQsqaUBKTNV-1" source="8B7Z0XMoEI5-TDhBGKwc-119" target="8B7Z0XMoEI5-TDhBGKwc-134">
          <mxGeometry relative="1" as="geometry" />
        </mxCell>
        <mxCell id="8B7Z0XMoEI5-TDhBGKwc-138" value="" style="group" vertex="1" connectable="0" parent="WIyWlLk6GJQsqaUBKTNV-1">
          <mxGeometry x="890" y="1040" width="150" height="70" as="geometry" />
        </mxCell>
        <mxCell id="8B7Z0XMoEI5-TDhBGKwc-139" value="Двері зачиняються" style="html=1;align=center;verticalAlign=top;rounded=1;absoluteArcSize=1;arcSize=21;dashed=0;whiteSpace=wrap;" vertex="1" parent="8B7Z0XMoEI5-TDhBGKwc-138">
          <mxGeometry width="140" height="70" as="geometry" />
        </mxCell>
        <mxCell id="8B7Z0XMoEI5-TDhBGKwc-140" value="" style="endArrow=none;html=1;rounded=0;entryX=1;entryY=0.5;entryDx=0;entryDy=0;exitX=0;exitY=0.5;exitDx=0;exitDy=0;" edge="1" parent="8B7Z0XMoEI5-TDhBGKwc-138" source="8B7Z0XMoEI5-TDhBGKwc-139" target="8B7Z0XMoEI5-TDhBGKwc-139">
          <mxGeometry width="50" height="50" relative="1" as="geometry">
            <mxPoint x="-104" y="70" as="sourcePoint" />
            <mxPoint x="-54" y="20" as="targetPoint" />
          </mxGeometry>
        </mxCell>
        <mxCell id="8B7Z0XMoEI5-TDhBGKwc-141" value="&lt;div style=&quot;&quot;&gt;&lt;br&gt;&lt;/div&gt;" style="text;whiteSpace=wrap;html=1;align=center;" vertex="1" parent="8B7Z0XMoEI5-TDhBGKwc-138">
          <mxGeometry y="40" width="140" height="30" as="geometry" />
        </mxCell>
        <mxCell id="8B7Z0XMoEI5-TDhBGKwc-145" value="" style="group" vertex="1" connectable="0" parent="WIyWlLk6GJQsqaUBKTNV-1">
          <mxGeometry x="1150" y="910" width="150" height="70" as="geometry" />
        </mxCell>
        <mxCell id="8B7Z0XMoEI5-TDhBGKwc-146" value="Перевірка натискання кнопки СТОП" style="html=1;align=center;verticalAlign=top;rounded=1;absoluteArcSize=1;arcSize=21;dashed=0;whiteSpace=wrap;" vertex="1" parent="8B7Z0XMoEI5-TDhBGKwc-145">
          <mxGeometry width="140" height="70" as="geometry" />
        </mxCell>
        <mxCell id="8B7Z0XMoEI5-TDhBGKwc-147" value="" style="endArrow=none;html=1;rounded=0;entryX=1;entryY=0.5;entryDx=0;entryDy=0;exitX=0;exitY=0.5;exitDx=0;exitDy=0;" edge="1" parent="8B7Z0XMoEI5-TDhBGKwc-145" source="8B7Z0XMoEI5-TDhBGKwc-146" target="8B7Z0XMoEI5-TDhBGKwc-146">
          <mxGeometry width="50" height="50" relative="1" as="geometry">
            <mxPoint x="-104" y="70" as="sourcePoint" />
            <mxPoint x="-54" y="20" as="targetPoint" />
          </mxGeometry>
        </mxCell>
        <mxCell id="8B7Z0XMoEI5-TDhBGKwc-172" value="" style="group" vertex="1" connectable="0" parent="WIyWlLk6GJQsqaUBKTNV-1">
          <mxGeometry x="1150" y="1050" width="140" height="70" as="geometry" />
        </mxCell>
        <mxCell id="8B7Z0XMoEI5-TDhBGKwc-173" value="Відкрити двері" style="html=1;align=center;verticalAlign=top;rounded=1;absoluteArcSize=1;arcSize=21;dashed=0;whiteSpace=wrap;" vertex="1" parent="8B7Z0XMoEI5-TDhBGKwc-172">
          <mxGeometry width="140" height="60" as="geometry" />
        </mxCell>
        <mxCell id="8B7Z0XMoEI5-TDhBGKwc-174" value="" style="endArrow=none;html=1;rounded=0;entryX=1;entryY=0.5;entryDx=0;entryDy=0;exitX=0;exitY=0.5;exitDx=0;exitDy=0;" edge="1" parent="8B7Z0XMoEI5-TDhBGKwc-172" source="8B7Z0XMoEI5-TDhBGKwc-173" target="8B7Z0XMoEI5-TDhBGKwc-173">
          <mxGeometry width="50" height="50" relative="1" as="geometry">
            <mxPoint x="-104" y="70" as="sourcePoint" />
            <mxPoint x="-54" y="20" as="targetPoint" />
          </mxGeometry>
        </mxCell>
        <mxCell id="8B7Z0XMoEI5-TDhBGKwc-175" value="&lt;span style=&quot;color: rgb(0, 0, 0); font-family: Helvetica; font-size: 12px; font-style: normal; font-variant-ligatures: normal; font-variant-caps: normal; font-weight: 400; letter-spacing: normal; orphans: 2; text-align: center; text-indent: 0px; text-transform: none; widows: 2; word-spacing: 0px; -webkit-text-stroke-width: 0px; white-space: normal; background-color: rgb(251, 251, 251); text-decoration-thickness: initial; text-decoration-style: initial; text-decoration-color: initial; display: inline !important; float: none;&quot;&gt;Двері відкриті 15 секунд&lt;/span&gt;" style="text;whiteSpace=wrap;html=1;" vertex="1" parent="8B7Z0XMoEI5-TDhBGKwc-172">
          <mxGeometry y="30" width="140" height="40" as="geometry" />
        </mxCell>
        <mxCell id="8B7Z0XMoEI5-TDhBGKwc-176" style="edgeStyle=orthogonalEdgeStyle;rounded=0;orthogonalLoop=1;jettySize=auto;html=1;exitX=1;exitY=0.5;exitDx=0;exitDy=0;entryX=0;entryY=0.25;entryDx=0;entryDy=0;" edge="1" parent="WIyWlLk6GJQsqaUBKTNV-1" source="8B7Z0XMoEI5-TDhBGKwc-141" target="8B7Z0XMoEI5-TDhBGKwc-146">
          <mxGeometry relative="1" as="geometry">
            <Array as="points">
              <mxPoint x="1090" y="1095" />
              <mxPoint x="1090" y="920" />
              <mxPoint x="1150" y="920" />
            </Array>
          </mxGeometry>
        </mxCell>
        <mxCell id="8B7Z0XMoEI5-TDhBGKwc-177" style="edgeStyle=orthogonalEdgeStyle;rounded=0;orthogonalLoop=1;jettySize=auto;html=1;exitX=0.75;exitY=1;exitDx=0;exitDy=0;" edge="1" parent="WIyWlLk6GJQsqaUBKTNV-1" source="8B7Z0XMoEI5-TDhBGKwc-146" target="8B7Z0XMoEI5-TDhBGKwc-173">
          <mxGeometry relative="1" as="geometry" />
        </mxCell>
        <mxCell id="8B7Z0XMoEI5-TDhBGKwc-179" value="Кнопка&lt;div&gt;СТОП натиснута&lt;/div&gt;" style="text;html=1;align=center;verticalAlign=middle;resizable=0;points=[];autosize=1;strokeColor=none;fillColor=none;" vertex="1" parent="WIyWlLk6GJQsqaUBKTNV-1">
          <mxGeometry x="1235" y="1000" width="120" height="40" as="geometry" />
        </mxCell>
        <mxCell id="8B7Z0XMoEI5-TDhBGKwc-180" style="edgeStyle=orthogonalEdgeStyle;rounded=0;orthogonalLoop=1;jettySize=auto;html=1;exitX=0;exitY=0.25;exitDx=0;exitDy=0;entryX=0;entryY=0.25;entryDx=0;entryDy=0;" edge="1" parent="WIyWlLk6GJQsqaUBKTNV-1" source="8B7Z0XMoEI5-TDhBGKwc-175" target="8B7Z0XMoEI5-TDhBGKwc-146">
          <mxGeometry relative="1" as="geometry" />
        </mxCell>
        <mxCell id="8B7Z0XMoEI5-TDhBGKwc-178" style="edgeStyle=orthogonalEdgeStyle;rounded=0;orthogonalLoop=1;jettySize=auto;html=1;exitX=1;exitY=0.75;exitDx=0;exitDy=0;entryX=1;entryY=0.25;entryDx=0;entryDy=0;" edge="1" parent="WIyWlLk6GJQsqaUBKTNV-1" source="8B7Z0XMoEI5-TDhBGKwc-146" target="8B7Z0XMoEI5-TDhBGKwc-211">
          <mxGeometry relative="1" as="geometry">
            <mxPoint x="950" y="460" as="targetPoint" />
            <Array as="points">
              <mxPoint x="1310" y="962" />
              <mxPoint x="1310" y="468" />
            </Array>
          </mxGeometry>
        </mxCell>
        <mxCell id="8B7Z0XMoEI5-TDhBGKwc-242" style="edgeStyle=orthogonalEdgeStyle;rounded=0;orthogonalLoop=1;jettySize=auto;html=1;entryX=0.003;entryY=0.552;entryDx=0;entryDy=0;entryPerimeter=0;" edge="1" parent="WIyWlLk6GJQsqaUBKTNV-1" source="8B7Z0XMoEI5-TDhBGKwc-11">
          <mxGeometry relative="1" as="geometry">
            <mxPoint x="941.56" y="256.32000000000016" as="targetPoint" />
          </mxGeometry>
        </mxCell>
        <mxCell id="8B7Z0XMoEI5-TDhBGKwc-243" value="Пасажир на&amp;nbsp;&lt;br&gt;іншому поверсі&amp;nbsp;&lt;br&gt;натиснув&amp;nbsp;&lt;br&gt;кнопку виклику" style="text;html=1;align=center;verticalAlign=middle;resizable=0;points=[];autosize=1;strokeColor=none;fillColor=none;" vertex="1" parent="WIyWlLk6GJQsqaUBKTNV-1">
          <mxGeometry x="830" y="190" width="110" height="70" as="geometry" />
        </mxCell>
        <mxCell id="8B7Z0XMoEI5-TDhBGKwc-251" value="" style="group" vertex="1" connectable="0" parent="WIyWlLk6GJQsqaUBKTNV-1">
          <mxGeometry x="940" y="230" width="150" height="70" as="geometry" />
        </mxCell>
        <mxCell id="8B7Z0XMoEI5-TDhBGKwc-252" value="Перевірка чи пасажир&lt;br&gt;у напрямку руху кабіни" style="html=1;align=center;verticalAlign=top;rounded=1;absoluteArcSize=1;arcSize=21;dashed=0;whiteSpace=wrap;" vertex="1" parent="8B7Z0XMoEI5-TDhBGKwc-251">
          <mxGeometry width="140" height="70" as="geometry" />
        </mxCell>
        <mxCell id="8B7Z0XMoEI5-TDhBGKwc-253" value="" style="endArrow=none;html=1;rounded=0;entryX=1;entryY=0.5;entryDx=0;entryDy=0;exitX=0;exitY=0.5;exitDx=0;exitDy=0;" edge="1" parent="8B7Z0XMoEI5-TDhBGKwc-251" source="8B7Z0XMoEI5-TDhBGKwc-252" target="8B7Z0XMoEI5-TDhBGKwc-252">
          <mxGeometry width="50" height="50" relative="1" as="geometry">
            <mxPoint x="-104" y="70" as="sourcePoint" />
            <mxPoint x="-54" y="20" as="targetPoint" />
          </mxGeometry>
        </mxCell>
        <mxCell id="8B7Z0XMoEI5-TDhBGKwc-254" value="&lt;div style=&quot;&quot;&gt;Система дивиться&lt;br&gt;де знаходиться пасажир&lt;/div&gt;" style="text;whiteSpace=wrap;html=1;align=center;" vertex="1" parent="8B7Z0XMoEI5-TDhBGKwc-251">
          <mxGeometry y="30" width="140" height="30" as="geometry" />
        </mxCell>
        <mxCell id="8B7Z0XMoEI5-TDhBGKwc-255" style="edgeStyle=orthogonalEdgeStyle;rounded=0;orthogonalLoop=1;jettySize=auto;html=1;entryX=1.007;entryY=0.596;entryDx=0;entryDy=0;entryPerimeter=0;" edge="1" parent="WIyWlLk6GJQsqaUBKTNV-1" source="8B7Z0XMoEI5-TDhBGKwc-254" target="8B7Z0XMoEI5-TDhBGKwc-11">
          <mxGeometry relative="1" as="geometry">
            <Array as="points">
              <mxPoint x="1000" y="450" />
            </Array>
          </mxGeometry>
        </mxCell>
        <mxCell id="8B7Z0XMoEI5-TDhBGKwc-256" value="Так,&lt;br&gt;пасажир у напряку&lt;br&gt;руху" style="text;html=1;align=center;verticalAlign=middle;resizable=0;points=[];autosize=1;strokeColor=none;fillColor=none;" vertex="1" parent="WIyWlLk6GJQsqaUBKTNV-1">
          <mxGeometry x="990" y="345" width="130" height="60" as="geometry" />
        </mxCell>
        <mxCell id="8B7Z0XMoEI5-TDhBGKwc-258" value="" style="group" vertex="1" connectable="0" parent="WIyWlLk6GJQsqaUBKTNV-1">
          <mxGeometry x="1210" y="160" width="150" height="70" as="geometry" />
        </mxCell>
        <mxCell id="8B7Z0XMoEI5-TDhBGKwc-259" value="Рух до&amp;nbsp;&lt;br&gt;поверху призначення" style="html=1;align=center;verticalAlign=top;rounded=1;absoluteArcSize=1;arcSize=21;dashed=0;whiteSpace=wrap;" vertex="1" parent="8B7Z0XMoEI5-TDhBGKwc-258">
          <mxGeometry width="140" height="70" as="geometry" />
        </mxCell>
        <mxCell id="8B7Z0XMoEI5-TDhBGKwc-260" value="" style="endArrow=none;html=1;rounded=0;entryX=1;entryY=0.5;entryDx=0;entryDy=0;exitX=0;exitY=0.5;exitDx=0;exitDy=0;" edge="1" parent="8B7Z0XMoEI5-TDhBGKwc-258" source="8B7Z0XMoEI5-TDhBGKwc-259" target="8B7Z0XMoEI5-TDhBGKwc-259">
          <mxGeometry width="50" height="50" relative="1" as="geometry">
            <mxPoint x="-104" y="70" as="sourcePoint" />
            <mxPoint x="-54" y="20" as="targetPoint" />
          </mxGeometry>
        </mxCell>
        <mxCell id="8B7Z0XMoEI5-TDhBGKwc-261" value="&lt;div style=&quot;&quot;&gt;&lt;br&gt;&lt;/div&gt;" style="text;whiteSpace=wrap;html=1;align=center;" vertex="1" parent="8B7Z0XMoEI5-TDhBGKwc-258">
          <mxGeometry y="40" width="140" height="30" as="geometry" />
        </mxCell>
        <mxCell id="8B7Z0XMoEI5-TDhBGKwc-262" style="edgeStyle=orthogonalEdgeStyle;rounded=0;orthogonalLoop=1;jettySize=auto;html=1;entryX=0;entryY=0.25;entryDx=0;entryDy=0;" edge="1" parent="WIyWlLk6GJQsqaUBKTNV-1" source="8B7Z0XMoEI5-TDhBGKwc-254" target="8B7Z0XMoEI5-TDhBGKwc-259">
          <mxGeometry relative="1" as="geometry" />
        </mxCell>
        <mxCell id="8B7Z0XMoEI5-TDhBGKwc-263" value="Ні" style="text;html=1;align=center;verticalAlign=middle;resizable=0;points=[];autosize=1;strokeColor=none;fillColor=none;" vertex="1" parent="WIyWlLk6GJQsqaUBKTNV-1">
          <mxGeometry x="1100" y="250" width="30" height="30" as="geometry" />
        </mxCell>
        <mxCell id="8B7Z0XMoEI5-TDhBGKwc-264" style="edgeStyle=orthogonalEdgeStyle;rounded=0;orthogonalLoop=1;jettySize=auto;html=1;entryX=0.25;entryY=0;entryDx=0;entryDy=0;" edge="1" parent="WIyWlLk6GJQsqaUBKTNV-1" source="8B7Z0XMoEI5-TDhBGKwc-261" target="8B7Z0XMoEI5-TDhBGKwc-10">
          <mxGeometry relative="1" as="geometry">
            <Array as="points">
              <mxPoint x="1420" y="215" />
              <mxPoint x="1420" y="40" />
              <mxPoint x="-287" y="40" />
            </Array>
          </mxGeometry>
        </mxCell>
        <mxCell id="8B7Z0XMoEI5-TDhBGKwc-300" value="" style="group" vertex="1" connectable="0" parent="WIyWlLk6GJQsqaUBKTNV-1">
          <mxGeometry x="-240" y="830" width="350" height="320" as="geometry" />
        </mxCell>
        <mxCell id="8B7Z0XMoEI5-TDhBGKwc-283" value="АВАРІЙНА КНОПКА" style="html=1;align=center;verticalAlign=top;rounded=1;absoluteArcSize=1;arcSize=50;dashed=0;spacingTop=10;spacingRight=30;whiteSpace=wrap;" vertex="1" parent="8B7Z0XMoEI5-TDhBGKwc-300">
          <mxGeometry x="10" y="12.63" width="349.99999999999994" height="320" as="geometry" />
        </mxCell>
        <mxCell id="8B7Z0XMoEI5-TDhBGKwc-285" value="" style="ellipse;fillColor=strokeColor;html=1;" vertex="1" parent="8B7Z0XMoEI5-TDhBGKwc-300">
          <mxGeometry x="35.8974358974359" y="33.68421052631579" width="26.92307692307692" height="25.26315789473684" as="geometry" />
        </mxCell>
        <mxCell id="8B7Z0XMoEI5-TDhBGKwc-286" value="" style="group" vertex="1" connectable="0" parent="8B7Z0XMoEI5-TDhBGKwc-300">
          <mxGeometry x="27.00076923076923" y="101.05263157894736" width="170" height="58.94736842105262" as="geometry" />
        </mxCell>
        <mxCell id="8B7Z0XMoEI5-TDhBGKwc-287" value="Кнопку натиснуто" style="html=1;align=center;verticalAlign=top;rounded=1;absoluteArcSize=1;arcSize=21;dashed=0;whiteSpace=wrap;" vertex="1" parent="8B7Z0XMoEI5-TDhBGKwc-286">
          <mxGeometry width="125.64102564102564" height="58.94736842105262" as="geometry" />
        </mxCell>
        <mxCell id="8B7Z0XMoEI5-TDhBGKwc-288" value="" style="endArrow=none;html=1;rounded=0;entryX=1;entryY=0.5;entryDx=0;entryDy=0;exitX=0;exitY=0.5;exitDx=0;exitDy=0;" edge="1" parent="8B7Z0XMoEI5-TDhBGKwc-286" source="8B7Z0XMoEI5-TDhBGKwc-287" target="8B7Z0XMoEI5-TDhBGKwc-287">
          <mxGeometry width="50" height="50" relative="1" as="geometry">
            <mxPoint x="-93.33333333333333" y="58.94736842105262" as="sourcePoint" />
            <mxPoint x="-48.46153846153846" y="16.842105263157894" as="targetPoint" />
          </mxGeometry>
        </mxCell>
        <mxCell id="8B7Z0XMoEI5-TDhBGKwc-284" style="edgeStyle=orthogonalEdgeStyle;rounded=0;orthogonalLoop=1;jettySize=auto;html=1;entryX=0.25;entryY=0;entryDx=0;entryDy=0;" edge="1" parent="8B7Z0XMoEI5-TDhBGKwc-300" source="8B7Z0XMoEI5-TDhBGKwc-285" target="8B7Z0XMoEI5-TDhBGKwc-287">
          <mxGeometry relative="1" as="geometry" />
        </mxCell>
        <mxCell id="8B7Z0XMoEI5-TDhBGKwc-290" value="" style="group" vertex="1" connectable="0" parent="8B7Z0XMoEI5-TDhBGKwc-300">
          <mxGeometry x="53.84615384615384" y="193.68421052631578" width="134.6153846153846" height="58.94736842105262" as="geometry" />
        </mxCell>
        <mxCell id="8B7Z0XMoEI5-TDhBGKwc-291" value="Ліфти на 1 поверх" style="html=1;align=center;verticalAlign=top;rounded=1;absoluteArcSize=1;arcSize=21;dashed=0;whiteSpace=wrap;" vertex="1" parent="8B7Z0XMoEI5-TDhBGKwc-290">
          <mxGeometry width="125.64102564102564" height="58.94736842105262" as="geometry" />
        </mxCell>
        <mxCell id="8B7Z0XMoEI5-TDhBGKwc-292" value="" style="endArrow=none;html=1;rounded=0;entryX=1;entryY=0.5;entryDx=0;entryDy=0;exitX=0;exitY=0.5;exitDx=0;exitDy=0;" edge="1" parent="8B7Z0XMoEI5-TDhBGKwc-290" source="8B7Z0XMoEI5-TDhBGKwc-291" target="8B7Z0XMoEI5-TDhBGKwc-291">
          <mxGeometry width="50" height="50" relative="1" as="geometry">
            <mxPoint x="-93.33333333333333" y="58.94736842105262" as="sourcePoint" />
            <mxPoint x="-48.46153846153846" y="16.842105263157894" as="targetPoint" />
          </mxGeometry>
        </mxCell>
        <mxCell id="8B7Z0XMoEI5-TDhBGKwc-293" value="&lt;div style=&quot;&quot;&gt;&lt;br&gt;&lt;/div&gt;" style="text;whiteSpace=wrap;html=1;align=center;" vertex="1" parent="8B7Z0XMoEI5-TDhBGKwc-290">
          <mxGeometry y="25.26315789473684" width="125.64102564102564" height="25.26315789473684" as="geometry" />
        </mxCell>
        <mxCell id="8B7Z0XMoEI5-TDhBGKwc-294" style="edgeStyle=orthogonalEdgeStyle;rounded=0;orthogonalLoop=1;jettySize=auto;html=1;exitX=0.75;exitY=1;exitDx=0;exitDy=0;entryX=0.5;entryY=0;entryDx=0;entryDy=0;" edge="1" parent="8B7Z0XMoEI5-TDhBGKwc-300" source="8B7Z0XMoEI5-TDhBGKwc-287" target="8B7Z0XMoEI5-TDhBGKwc-291">
          <mxGeometry relative="1" as="geometry" />
        </mxCell>
        <mxCell id="8B7Z0XMoEI5-TDhBGKwc-295" value="" style="group" vertex="1" connectable="0" parent="8B7Z0XMoEI5-TDhBGKwc-300">
          <mxGeometry x="206.4102564102564" y="143.15789473684208" width="134.6153846153846" height="58.94736842105262" as="geometry" />
        </mxCell>
        <mxCell id="8B7Z0XMoEI5-TDhBGKwc-296" value="Відчинити двері" style="html=1;align=center;verticalAlign=top;rounded=1;absoluteArcSize=1;arcSize=21;dashed=0;whiteSpace=wrap;" vertex="1" parent="8B7Z0XMoEI5-TDhBGKwc-295">
          <mxGeometry width="125.64102564102564" height="58.94736842105262" as="geometry" />
        </mxCell>
        <mxCell id="8B7Z0XMoEI5-TDhBGKwc-297" value="" style="endArrow=none;html=1;rounded=0;entryX=1;entryY=0.5;entryDx=0;entryDy=0;exitX=0;exitY=0.5;exitDx=0;exitDy=0;" edge="1" parent="8B7Z0XMoEI5-TDhBGKwc-295" source="8B7Z0XMoEI5-TDhBGKwc-296" target="8B7Z0XMoEI5-TDhBGKwc-296">
          <mxGeometry width="50" height="50" relative="1" as="geometry">
            <mxPoint x="-93.33333333333333" y="58.94736842105262" as="sourcePoint" />
            <mxPoint x="-48.46153846153846" y="16.842105263157894" as="targetPoint" />
          </mxGeometry>
        </mxCell>
        <mxCell id="8B7Z0XMoEI5-TDhBGKwc-298" value="&lt;div style=&quot;&quot;&gt;Усі ліфти висаджу.ть пасажирів&lt;/div&gt;" style="text;whiteSpace=wrap;html=1;align=center;" vertex="1" parent="8B7Z0XMoEI5-TDhBGKwc-295">
          <mxGeometry y="25.26315789473684" width="125.64102564102564" height="25.26315789473684" as="geometry" />
        </mxCell>
        <mxCell id="8B7Z0XMoEI5-TDhBGKwc-299" style="edgeStyle=orthogonalEdgeStyle;rounded=0;orthogonalLoop=1;jettySize=auto;html=1;exitX=1;exitY=0.75;exitDx=0;exitDy=0;entryX=0;entryY=0.25;entryDx=0;entryDy=0;" edge="1" parent="8B7Z0XMoEI5-TDhBGKwc-300" source="8B7Z0XMoEI5-TDhBGKwc-293" target="8B7Z0XMoEI5-TDhBGKwc-296">
          <mxGeometry relative="1" as="geometry" />
        </mxCell>
        <mxCell id="8B7Z0XMoEI5-TDhBGKwc-289" value="&lt;div style=&quot;&quot;&gt;Усім ліфтам подається&lt;br&gt;сигнал аварії&lt;/div&gt;" style="text;whiteSpace=wrap;html=1;align=center;" vertex="1" parent="8B7Z0XMoEI5-TDhBGKwc-300">
          <mxGeometry x="10.000769230769208" y="126.3126315789474" width="170" height="25.26" as="geometry" />
        </mxCell>
        <mxCell id="8B7Z0XMoEI5-TDhBGKwc-302" value="" style="ellipse;fillColor=strokeColor;html=1;" vertex="1" parent="WIyWlLk6GJQsqaUBKTNV-1">
          <mxGeometry x="-450" y="946" width="30" height="30" as="geometry" />
        </mxCell>
        <mxCell id="8B7Z0XMoEI5-TDhBGKwc-303" style="edgeStyle=orthogonalEdgeStyle;rounded=0;orthogonalLoop=1;jettySize=auto;html=1;entryX=0.001;entryY=0.344;entryDx=0;entryDy=0;entryPerimeter=0;" edge="1" parent="WIyWlLk6GJQsqaUBKTNV-1" source="8B7Z0XMoEI5-TDhBGKwc-302" target="8B7Z0XMoEI5-TDhBGKwc-283">
          <mxGeometry relative="1" as="geometry" />
        </mxCell>
        <mxCell id="8B7Z0XMoEI5-TDhBGKwc-304" value="Аварійна кнопка&lt;br&gt;натиснута" style="text;html=1;align=center;verticalAlign=middle;resizable=0;points=[];autosize=1;strokeColor=none;fillColor=none;" vertex="1" parent="WIyWlLk6GJQsqaUBKTNV-1">
          <mxGeometry x="-377" y="914" width="110" height="40" as="geometry" />
        </mxCell>
        <mxCell id="8B7Z0XMoEI5-TDhBGKwc-305" style="edgeStyle=orthogonalEdgeStyle;rounded=0;orthogonalLoop=1;jettySize=auto;html=1;exitX=0.75;exitY=0;exitDx=0;exitDy=0;entryX=1;entryY=0.25;entryDx=0;entryDy=0;" edge="1" parent="WIyWlLk6GJQsqaUBKTNV-1" source="8B7Z0XMoEI5-TDhBGKwc-283" target="8B7Z0XMoEI5-TDhBGKwc-307">
          <mxGeometry relative="1" as="geometry" />
        </mxCell>
        <mxCell id="8B7Z0XMoEI5-TDhBGKwc-306" value="" style="group" vertex="1" connectable="0" parent="WIyWlLk6GJQsqaUBKTNV-1">
          <mxGeometry x="-412.9997435897436" y="719.9978947368421" width="134.6153846153846" height="58.94736842105262" as="geometry" />
        </mxCell>
        <mxCell id="8B7Z0XMoEI5-TDhBGKwc-307" value="Кнопку деактивували" style="html=1;align=center;verticalAlign=top;rounded=1;absoluteArcSize=1;arcSize=21;dashed=0;whiteSpace=wrap;" vertex="1" parent="8B7Z0XMoEI5-TDhBGKwc-306">
          <mxGeometry width="125.64102564102564" height="58.94736842105262" as="geometry" />
        </mxCell>
        <mxCell id="8B7Z0XMoEI5-TDhBGKwc-308" value="" style="endArrow=none;html=1;rounded=0;entryX=1;entryY=0.5;entryDx=0;entryDy=0;exitX=0;exitY=0.5;exitDx=0;exitDy=0;" edge="1" parent="8B7Z0XMoEI5-TDhBGKwc-306" source="8B7Z0XMoEI5-TDhBGKwc-307" target="8B7Z0XMoEI5-TDhBGKwc-307">
          <mxGeometry width="50" height="50" relative="1" as="geometry">
            <mxPoint x="-93.33333333333333" y="58.94736842105262" as="sourcePoint" />
            <mxPoint x="-48.46153846153846" y="16.842105263157894" as="targetPoint" />
          </mxGeometry>
        </mxCell>
        <mxCell id="8B7Z0XMoEI5-TDhBGKwc-310" style="edgeStyle=orthogonalEdgeStyle;rounded=0;orthogonalLoop=1;jettySize=auto;html=1;exitX=0;exitY=1;exitDx=0;exitDy=0;entryX=0.002;entryY=0.729;entryDx=0;entryDy=0;entryPerimeter=0;" edge="1" parent="WIyWlLk6GJQsqaUBKTNV-1" target="8B7Z0XMoEI5-TDhBGKwc-10">
          <mxGeometry relative="1" as="geometry">
            <mxPoint x="-412.9997435897435" y="770.5242105263158" as="sourcePoint" />
            <Array as="points">
              <mxPoint x="-530" y="770" />
              <mxPoint x="-530" y="521" />
            </Array>
          </mxGeometry>
        </mxCell>
        <mxCell id="8B7Z0XMoEI5-TDhBGKwc-311" value="Так" style="text;html=1;align=center;verticalAlign=middle;resizable=0;points=[];autosize=1;strokeColor=none;fillColor=none;" vertex="1" parent="WIyWlLk6GJQsqaUBKTNV-1">
          <mxGeometry x="-488" y="734.47" width="40" height="30" as="geometry" />
        </mxCell>
        <mxCell id="8B7Z0XMoEI5-TDhBGKwc-312" value="" style="group" vertex="1" connectable="0" parent="WIyWlLk6GJQsqaUBKTNV-1">
          <mxGeometry x="-420" y="820" width="150" height="80" as="geometry" />
        </mxCell>
        <mxCell id="8B7Z0XMoEI5-TDhBGKwc-313" value="Очікування" style="html=1;align=center;verticalAlign=top;rounded=1;absoluteArcSize=1;arcSize=21;dashed=0;whiteSpace=wrap;" vertex="1" parent="8B7Z0XMoEI5-TDhBGKwc-312">
          <mxGeometry width="140" height="80" as="geometry" />
        </mxCell>
        <mxCell id="8B7Z0XMoEI5-TDhBGKwc-314" value="" style="endArrow=none;html=1;rounded=0;entryX=1;entryY=0.5;entryDx=0;entryDy=0;exitX=0;exitY=0.5;exitDx=0;exitDy=0;" edge="1" parent="8B7Z0XMoEI5-TDhBGKwc-312" source="8B7Z0XMoEI5-TDhBGKwc-313" target="8B7Z0XMoEI5-TDhBGKwc-313">
          <mxGeometry width="50" height="50" relative="1" as="geometry">
            <mxPoint x="-104" y="80" as="sourcePoint" />
            <mxPoint x="-54" y="22.857142857142854" as="targetPoint" />
          </mxGeometry>
        </mxCell>
        <mxCell id="8B7Z0XMoEI5-TDhBGKwc-315" value="&lt;div style=&quot;&quot;&gt;Ліфти з відкрити дверима очікують&lt;/div&gt;" style="text;whiteSpace=wrap;html=1;align=center;" vertex="1" parent="8B7Z0XMoEI5-TDhBGKwc-312">
          <mxGeometry y="45.71428571428571" width="140" height="34.285714285714285" as="geometry" />
        </mxCell>
        <mxCell id="8B7Z0XMoEI5-TDhBGKwc-316" style="edgeStyle=orthogonalEdgeStyle;rounded=0;orthogonalLoop=1;jettySize=auto;html=1;exitX=0.25;exitY=1;exitDx=0;exitDy=0;entryX=0.25;entryY=0;entryDx=0;entryDy=0;" edge="1" parent="WIyWlLk6GJQsqaUBKTNV-1" source="8B7Z0XMoEI5-TDhBGKwc-307" target="8B7Z0XMoEI5-TDhBGKwc-313">
          <mxGeometry relative="1" as="geometry" />
        </mxCell>
        <mxCell id="8B7Z0XMoEI5-TDhBGKwc-317" value="Ні" style="text;html=1;align=center;verticalAlign=middle;resizable=0;points=[];autosize=1;strokeColor=none;fillColor=none;" vertex="1" parent="WIyWlLk6GJQsqaUBKTNV-1">
          <mxGeometry x="-425" y="780" width="30" height="30" as="geometry" />
        </mxCell>
        <mxCell id="8B7Z0XMoEI5-TDhBGKwc-318" style="edgeStyle=orthogonalEdgeStyle;rounded=0;orthogonalLoop=1;jettySize=auto;html=1;exitX=0.75;exitY=0;exitDx=0;exitDy=0;entryX=0.75;entryY=1;entryDx=0;entryDy=0;" edge="1" parent="WIyWlLk6GJQsqaUBKTNV-1" source="8B7Z0XMoEI5-TDhBGKwc-313" target="8B7Z0XMoEI5-TDhBGKwc-307">
          <mxGeometry relative="1" as="geometry" />
        </mxCell>
      </root>
    </mxGraphModel>
  </diagram>
</mxfile>
